<?xml version="1.0" encoding="UTF-8" standalone="no"?>
<!DOCTYPE svg PUBLIC "-//W3C//DTD SVG 1.1//EN" "http://www.w3.org/Graphics/SVG/1.1/DTD/svg11.dtd">
<svg width="100%" height="100%" viewBox="0 0 512 386" version="1.1" xmlns="http://www.w3.org/2000/svg" xmlns:xlink="http://www.w3.org/1999/xlink" xml:space="preserve" style="fill-rule:evenodd;clip-rule:evenodd;stroke-linejoin:round;stroke-miterlimit:1.41421;">
    <g id="Ebene1">
        <rect x="56.265" y="61.299" width="181.396" height="138.708" style="fill:rgb(235,235,235);"/>
        <rect x="267.905" y="186.618" width="185.689" height="156.357" style="fill:rgb(235,235,235);"/>
    </g>
    <g id="svgg" transform="matrix(1.25779,0,0,1.25779,3.99836,-2.20894)">
        <g id="path0" transform="matrix(1,0,0,1,-0.46321,7.11203)">
            <path d="M55.422,0.759C55.422,1.176 54.904,1.841 54.271,2.236C53.638,2.631 52.939,3.781 52.717,4.791C52.495,5.8 52.064,6.627 51.759,6.627C51.454,6.627 51.205,7 51.205,7.456C51.205,7.913 50.798,8.624 50.301,9.036C49.804,9.449 49.398,10.295 49.398,10.917C49.398,11.539 49.127,12.048 48.795,12.048C48.464,12.048 48.193,12.455 48.193,12.952C48.193,13.449 47.989,13.857 47.741,13.859C47.135,13.864 45.181,17.347 45.181,18.422C45.181,18.892 44.91,19.277 44.578,19.277C44.247,19.277 43.976,19.684 43.976,20.181C43.976,20.678 43.71,21.084 43.385,21.084C43.06,21.084 42.624,21.762 42.416,22.59C42.208,23.419 41.796,24.096 41.501,24.096C41.206,24.096 40.964,24.639 40.964,25.301C40.964,25.964 40.693,26.506 40.361,26.506C40.03,26.506 39.759,26.913 39.759,27.41C39.759,27.907 39.54,28.313 39.273,28.313C39.005,28.313 38.284,29.465 37.67,30.873C37.055,32.282 36.393,33.569 36.198,33.735C35.622,34.224 34.417,36.287 33.294,38.705C32.718,39.947 32.039,40.964 31.786,40.964C31.532,40.964 31.325,41.351 31.325,41.824C31.325,42.298 30.976,43.043 30.549,43.481C30.123,43.919 29.242,45.32 28.592,46.594C27.942,47.869 27.142,49.428 26.815,50.058C26.488,50.689 26.014,51.205 25.761,51.205C25.508,51.205 25.301,51.747 25.301,52.41C25.301,53.072 25.06,53.614 24.764,53.614C24.469,53.614 24.057,54.292 23.849,55.12C23.641,55.949 23.205,56.627 22.88,56.627C22.555,56.627 22.289,57.033 22.289,57.53C22.289,58.027 22.018,58.434 21.687,58.434C21.355,58.434 21.084,58.976 21.084,59.639C21.084,60.301 20.843,60.843 20.547,60.843C20.252,60.843 19.84,61.521 19.632,62.349C19.424,63.178 18.988,63.855 18.663,63.855C18.338,63.855 18.072,64.262 18.072,64.759C18.072,65.256 17.835,65.663 17.545,65.663C17.255,65.663 16.867,66.408 16.683,67.319C16.499,68.23 15.855,69.518 15.252,70.181C14.65,70.843 13.379,72.944 12.428,74.849C11.478,76.755 10.483,78.313 10.217,78.313C9.952,78.313 9.541,79.194 9.304,80.271C9.068,81.347 8.436,82.635 7.901,83.132C6.593,84.347 4.819,87.608 4.819,88.798C4.819,89.326 4.591,89.759 4.312,89.759C4.033,89.759 3.287,90.776 2.655,92.018C2.023,93.261 1.235,94.471 0.904,94.707C0.07,95.301 0.132,103.55 0.973,104.088C1.343,104.325 1.835,105.128 2.068,105.873C2.3,106.619 2.744,107.229 3.053,107.229C3.362,107.229 3.614,107.636 3.614,108.133C3.614,108.63 3.886,109.036 4.217,109.036C4.548,109.036 4.819,109.421 4.819,109.891C4.819,110.966 6.773,114.449 7.38,114.454C7.628,114.456 7.831,114.864 7.831,115.361C7.831,115.858 8.102,116.265 8.434,116.265C8.765,116.265 9.036,116.681 9.036,117.19C9.036,118.001 10.551,120.845 11.432,121.687C11.605,121.852 12.22,122.937 12.797,124.096C14.054,126.618 15.212,128.501 15.765,128.922C15.988,129.091 16.349,129.945 16.569,130.82C16.789,131.695 17.42,132.916 17.972,133.534C18.524,134.151 19.766,136.211 20.733,138.111C21.699,140.011 22.694,141.566 22.944,141.566C23.194,141.566 23.577,142.38 23.795,143.373C24.013,144.367 24.41,145.181 24.676,145.181C24.943,145.181 25.31,145.655 25.493,146.235C25.963,147.724 28.422,151.875 29.639,153.235C30.202,153.865 30.833,155.156 31.042,156.106C31.25,157.055 31.671,157.831 31.976,157.831C32.281,157.831 32.53,158.238 32.53,158.735C32.53,159.232 32.774,159.639 33.073,159.639C33.371,159.639 34.117,160.857 34.729,162.347C35.342,163.837 36.047,165.057 36.295,165.058C36.544,165.059 36.747,165.467 36.747,165.964C36.747,166.461 36.977,166.867 37.259,166.867C37.54,166.867 38.273,168.087 38.888,169.578C39.503,171.069 40.222,172.289 40.485,172.289C40.748,172.289 40.964,172.663 40.964,173.119C40.964,173.575 41.37,174.286 41.867,174.699C42.364,175.111 42.771,175.958 42.771,176.58C42.771,177.202 43.042,177.711 43.373,177.711C43.705,177.711 43.976,178.117 43.976,178.614C43.976,179.111 44.242,179.518 44.567,179.518C44.892,179.518 45.328,180.196 45.536,181.024C45.744,181.852 46.155,182.53 46.451,182.53C46.746,182.53 46.988,183.072 46.988,183.735C46.988,184.398 47.259,184.94 47.59,184.94C47.922,184.94 48.193,185.346 48.193,185.843C48.193,186.34 48.459,186.747 48.784,186.747C49.109,186.747 49.545,187.425 49.753,188.253C49.961,189.081 50.372,189.759 50.668,189.759C50.963,189.759 51.205,190.301 51.205,190.964C51.205,191.627 51.447,192.169 51.742,192.169C52.037,192.169 52.449,192.846 52.657,193.675C52.865,194.503 53.301,195.181 53.626,195.181C53.951,195.181 54.217,195.587 54.217,196.084C54.217,196.581 54.456,196.988 54.749,196.988C55.042,196.988 55.423,197.53 55.596,198.193C55.909,199.387 56.411,199.397 112.745,199.382L169.578,199.366L173.361,192.605C175.442,188.886 179.195,182.319 181.702,178.012C184.209,173.705 187.092,168.69 188.11,166.867C189.128,165.045 191.135,161.566 192.571,159.137C194.006,156.707 195.181,154.635 195.181,154.532C195.181,154.428 197.756,149.949 200.904,144.578C204.051,139.207 206.627,134.7 206.627,134.563C206.627,134.426 207.319,133.217 208.165,131.876C209.752,129.362 210.449,128.148 213.842,121.988C214.937,120 216.337,117.654 216.953,116.774C217.569,115.895 218.072,115.053 218.072,114.903C218.072,114.753 219.465,112.22 221.167,109.273C222.869,106.327 224.742,103.072 225.327,102.04C225.913,101.009 226.723,99.637 227.126,98.991C227.911,97.735 226.531,93.976 225.286,93.976C224.963,93.976 224.699,93.434 224.699,92.771C224.699,92.108 224.457,91.566 224.162,91.566C223.866,91.566 223.439,90.821 223.211,89.91C222.984,88.998 222.417,87.83 221.952,87.314C220.959,86.212 218.222,81.49 217.695,79.97C217.494,79.39 217.111,78.916 216.845,78.916C216.579,78.916 216.182,78.102 215.964,77.108C215.746,76.114 215.362,75.301 215.111,75.301C214.86,75.301 213.877,73.742 212.926,71.837C211.975,69.932 210.747,67.967 210.197,67.469C209.647,66.972 209.004,65.684 208.768,64.608C208.531,63.531 208.088,62.651 207.783,62.651C207.478,62.651 207.229,62.244 207.229,61.747C207.229,61.25 206.999,60.843 206.717,60.843C206.436,60.843 205.703,59.623 205.088,58.133C204.473,56.642 203.787,55.422 203.563,55.422C203.339,55.422 202.379,53.863 201.429,51.958C200.479,50.053 199.363,48.136 198.948,47.698C198.532,47.26 198.193,46.515 198.193,46.041C198.193,45.568 197.922,45.181 197.59,45.181C197.259,45.181 196.988,44.639 196.988,43.976C196.988,43.313 196.717,42.771 196.386,42.771C196.054,42.771 195.783,42.364 195.783,41.867C195.783,41.37 195.517,40.964 195.192,40.964C194.867,40.964 194.431,40.286 194.223,39.458C194.015,38.63 193.604,37.952 193.308,37.952C193.013,37.952 192.771,37.41 192.771,36.747C192.771,36.084 192.564,35.542 192.312,35.542C191.851,35.542 190.763,33.757 190.016,31.777C189.797,31.197 189.379,30.723 189.086,30.723C188.794,30.723 188.554,30.181 188.554,29.518C188.554,28.855 188.288,28.313 187.963,28.313C187.638,28.313 187.202,27.636 186.994,26.807C186.786,25.979 186.375,25.301 186.079,25.301C185.784,25.301 185.542,24.895 185.542,24.398C185.542,23.901 185.3,23.494 185.005,23.494C184.71,23.494 184.298,22.816 184.09,21.988C183.882,21.16 183.446,20.482 183.121,20.482C182.796,20.482 182.53,19.94 182.53,19.277C182.53,18.614 182.259,18.072 181.928,18.072C181.596,18.072 181.325,17.688 181.325,17.219C181.325,16.749 181.122,16.275 180.873,16.165C180.625,16.054 179.882,14.88 179.223,13.554C178.563,12.229 177.885,11.009 177.717,10.843C177.385,10.517 175.522,7.167 174.454,4.975C174.091,4.232 173.592,3.622 173.343,3.619C173.095,3.617 172.892,3.227 172.892,2.754C172.892,-0.097 174.992,0 113.21,0C67.15,0 55.422,0.154 55.422,0.759M58.183,51.205C58.983,51.205 59.639,51.447 59.639,51.742C59.639,52.037 60.316,52.449 61.145,52.657C61.973,52.865 62.651,53.301 62.651,53.626C62.651,53.951 63.035,54.217 63.504,54.217C63.973,54.217 64.448,54.42 64.558,54.669C64.847,55.318 69.738,58.434 70.469,58.434C70.807,58.434 71.084,58.662 71.084,58.941C71.084,59.22 72.033,59.96 73.193,60.584C74.352,61.209 75.301,61.929 75.301,62.185C75.301,62.441 75.708,62.651 76.205,62.651C76.702,62.651 77.108,62.903 77.108,63.212C77.108,63.521 77.718,63.965 78.464,64.197C79.209,64.43 79.955,64.789 80.12,64.994C80.806,65.846 84.904,68.675 85.452,68.675C85.778,68.675 86.135,68.878 86.245,69.127C86.534,69.776 91.424,72.892 92.156,72.892C92.494,72.892 92.771,73.12 92.771,73.399C92.771,73.678 93.72,74.418 94.88,75.042C96.039,75.667 96.988,76.387 96.988,76.643C96.988,76.899 97.395,77.108 97.892,77.108C98.389,77.108 98.795,77.361 98.795,77.67C98.795,77.979 99.366,78.413 100.064,78.635C100.762,78.856 101.87,79.485 102.525,80.031C103.18,80.577 104.277,81.498 104.962,82.078C105.648,82.658 106.551,83.133 106.97,83.133C107.388,83.133 107.821,83.363 107.932,83.645C108.696,85.596 116.867,88.558 116.867,86.884C116.867,86.628 117.884,85.885 119.127,85.233C120.369,84.581 121.602,83.707 121.867,83.289C122.132,82.872 122.74,82.53 123.218,82.53C123.695,82.53 124.425,81.988 124.839,81.325C125.252,80.663 126.068,80.12 126.651,80.12C127.234,80.12 127.711,79.868 127.711,79.559C127.711,79.25 128.321,78.804 129.066,78.569C129.812,78.333 130.828,77.676 131.325,77.108C131.822,76.541 132.839,75.883 133.584,75.648C134.33,75.413 134.94,74.967 134.94,74.658C134.94,74.349 135.247,74.096 135.622,74.096C135.997,74.096 136.743,73.593 137.279,72.978C137.815,72.362 138.863,71.667 139.608,71.431C140.354,71.196 140.964,70.75 140.964,70.441C140.964,70.132 141.211,69.88 141.512,69.88C142.344,69.88 146.988,66.724 146.988,66.158C146.988,65.886 147.53,65.663 148.193,65.663C148.855,65.663 149.398,65.453 149.398,65.197C149.398,64.941 150.346,64.221 151.506,63.596C152.666,62.972 153.614,62.262 153.614,62.019C153.614,61.775 154.292,61.406 155.12,61.198C155.949,60.991 156.627,60.554 156.627,60.229C156.627,59.904 156.934,59.639 157.309,59.639C157.684,59.639 158.43,59.135 158.965,58.52C159.501,57.905 160.55,57.209 161.295,56.973C162.041,56.738 162.651,56.292 162.651,55.984C162.651,55.675 162.958,55.422 163.333,55.422C163.708,55.422 164.454,54.947 164.99,54.367C165.525,53.788 167.048,52.809 168.373,52.192C169.699,51.576 171.254,50.83 171.829,50.536C173.248,49.809 176.506,49.856 176.506,50.602C176.506,50.934 176.809,51.205 177.179,51.205C178.53,51.205 182.53,55.854 182.53,57.424C182.53,58.271 182.801,59.133 183.133,59.337C183.962,59.85 183.962,137.74 183.133,138.253C182.801,138.458 182.521,139.49 182.511,140.548C182.474,144.277 179.348,146.506 174.155,146.506C170.2,146.506 166.867,145.037 166.867,143.294C166.867,142.73 166.61,142.179 166.296,142.068C165.952,141.947 165.554,128.741 165.297,108.886C164.89,77.401 164.82,75.904 163.76,75.904C163.15,75.904 162.651,76.175 162.651,76.506C162.651,76.837 162.244,77.108 161.747,77.108C161.25,77.108 160.843,77.318 160.843,77.574C160.843,77.83 159.895,78.55 158.735,79.175C157.575,79.799 156.627,80.539 156.627,80.818C156.627,81.097 156.22,81.325 155.723,81.325C155.226,81.325 154.819,81.535 154.819,81.791C154.819,82.047 153.87,82.767 152.711,83.392C151.551,84.016 150.602,84.755 150.602,85.035C150.602,85.314 150.313,85.542 149.96,85.542C149.606,85.542 148.429,86.22 147.343,87.048C146.257,87.877 145.084,88.554 144.737,88.554C144.389,88.554 143.949,88.961 143.758,89.458C143.567,89.955 143.038,90.361 142.582,90.361C142.126,90.361 141.262,90.904 140.663,91.566C140.063,92.229 139.208,92.771 138.762,92.771C138.316,92.771 137.952,93.024 137.952,93.333C137.952,93.642 137.342,94.087 136.596,94.323C135.851,94.558 134.834,95.215 134.337,95.783C133.84,96.351 132.824,97.008 132.078,97.244C131.333,97.479 130.723,97.924 130.723,98.233C130.723,98.542 130.376,98.795 129.952,98.795C129.528,98.795 128.791,99.337 128.313,100C127.836,100.663 127.11,101.205 126.702,101.205C126.293,101.205 125.281,101.883 124.452,102.711C123.624,103.539 122.682,104.217 122.36,104.217C122.037,104.217 121.415,104.556 120.977,104.97C120.539,105.384 119.435,106.062 118.524,106.476C117.613,106.89 116.145,107.568 115.263,107.982C113.979,108.584 113.608,108.584 113.405,107.982C113.266,107.568 112.633,107.229 111.998,107.229C111.363,107.229 110.843,106.958 110.843,106.627C110.843,106.295 110.437,106.024 109.94,106.024C109.443,106.024 109.036,105.771 109.036,105.462C109.036,105.153 108.562,104.748 107.982,104.562C107.402,104.376 106.14,103.545 105.177,102.714C104.215,101.884 103.122,101.205 102.75,101.205C102.378,101.205 101.682,100.663 101.205,100C100.727,99.337 99.99,98.795 99.566,98.795C99.142,98.795 98.795,98.542 98.795,98.233C98.795,97.924 98.185,97.479 97.44,97.244C96.694,97.008 95.678,96.351 95.181,95.783C94.684,95.215 93.667,94.558 92.922,94.323C92.176,94.087 91.566,93.642 91.566,93.333C91.566,93.024 91.053,92.771 90.426,92.771C89.799,92.771 89.128,92.36 88.935,91.858C88.743,91.356 87.968,90.679 87.214,90.354C85.489,89.609 83.837,88.55 82.306,87.206C81.65,86.63 80.619,86.001 80.014,85.81C79.41,85.618 78.916,85.208 78.916,84.899C78.916,84.59 78.509,84.337 78.012,84.337C77.515,84.337 77.108,84.085 77.108,83.776C77.108,83.467 76.498,83.021 75.753,82.786C75.008,82.55 73.959,81.854 73.423,81.239C72.887,80.624 72.175,80.12 71.84,80.12C71.506,80.12 70.894,79.714 70.482,79.217C70.069,78.72 69.334,78.313 68.848,78.313C68.362,78.313 67.466,77.703 66.856,76.958C64.633,74.238 64.513,75.792 64.332,109.687C64.142,145.306 64.374,142.927 60.86,145.356C60.041,145.922 58.776,146.386 58.049,146.386C57.322,146.386 56.613,146.724 56.474,147.139C56.271,147.741 55.801,147.741 54.122,147.139C52.967,146.724 51.684,146.386 51.27,146.386C50.32,146.386 48.759,144.841 47.758,142.913C46.646,140.77 46.63,57.61 47.741,56.271C48.708,55.106 50.889,52.924 52.054,51.958C52.553,51.544 53.499,51.205 54.156,51.205C54.813,51.205 55.552,50.879 55.798,50.481C56.145,49.919 56.298,49.919 56.486,50.481C56.618,50.879 57.382,51.205 58.183,51.205" style="fill:rgb(26,25,25);"/>
        </g>
        <path id="path1" d="M331.175,205.847C331.92,205.99 333.14,205.99 333.886,205.847C334.631,205.703 334.021,205.586 332.53,205.586C331.039,205.586 330.429,205.703 331.175,205.847" style="fill:rgb(170,0,0);"/>
        <path id="path3" d="M294.729,98.042C303.261,98.136 317.221,98.136 325.753,98.042C334.285,97.947 327.304,97.87 310.241,97.87C293.178,97.87 286.197,97.947 294.729,98.042M171.386,195.783C170.872,196.777 170.587,197.59 170.752,197.59C170.918,197.59 171.474,196.777 171.988,195.783C172.502,194.789 172.787,193.976 172.621,193.976C172.456,193.976 171.9,194.789 171.386,195.783M331.777,206.449C332.523,206.593 333.742,206.593 334.488,206.449C335.233,206.306 334.623,206.188 333.133,206.188C331.642,206.188 331.032,206.306 331.777,206.449" style="fill:rgb(128,64,0);"/>
        <g id="path4" transform="matrix(1,0,0,1,-0.46321,7.11203)">
            <path d="M227.711,98.106C227.711,98.456 226.936,100.056 225.989,101.662C225.043,103.268 223.593,105.787 222.767,107.261C221.108,110.222 207.605,133.725 200.343,146.289C197.789,150.708 194.995,155.588 194.134,157.132C193.273,158.676 191.394,161.928 189.959,164.357C188.524,166.786 187.349,168.893 187.349,169.038C187.349,169.183 186.651,170.407 185.798,171.759C184.945,173.11 183.545,175.477 182.687,177.018C179.364,182.985 178.933,183.731 177.442,186.093C176.596,187.434 175.904,188.649 175.904,188.794C175.904,188.939 174.734,191.045 173.304,193.474C170.363,198.474 169.691,200 170.431,200C170.713,200 171.094,200.474 171.277,201.054C171.721,202.462 174.201,206.715 175.183,207.754C175.615,208.211 176.549,209.838 177.258,211.371C177.967,212.903 178.702,214.292 178.891,214.458C179.08,214.623 179.773,215.908 180.431,217.312C181.088,218.717 181.83,219.869 182.078,219.873C182.327,219.876 182.53,220.286 182.53,220.783C182.53,221.28 182.749,221.687 183.017,221.687C183.284,221.687 184.009,222.833 184.627,224.233C185.244,225.634 186.236,227.301 186.83,227.939C187.424,228.576 187.768,229.328 187.594,229.609C187.42,229.89 187.565,230.12 187.916,230.12C188.267,230.12 188.554,230.663 188.554,231.325C188.554,231.988 188.825,232.53 189.157,232.53C189.488,232.53 189.759,232.937 189.759,233.434C189.759,233.931 190.03,234.337 190.361,234.337C190.693,234.337 190.964,234.725 190.964,235.198C190.964,235.671 191.313,236.417 191.74,236.855C192.166,237.292 192.987,238.599 193.564,239.759C194.753,242.152 195.927,244.134 196.417,244.578C196.6,244.744 197.278,245.922 197.923,247.197C200.122,251.539 200.286,251.807 200.745,251.807C200.998,251.807 201.205,252.192 201.205,252.662C201.205,253.737 203.159,257.22 203.765,257.225C204.014,257.227 204.217,257.636 204.217,258.133C204.217,258.63 204.488,259.036 204.819,259.036C205.151,259.036 205.422,259.545 205.422,260.167C205.422,260.789 205.828,261.636 206.325,262.048C206.822,262.461 207.229,263.172 207.229,263.628C207.229,264.084 207.441,264.458 207.699,264.458C207.958,264.458 208.481,265.203 208.862,266.114C209.556,267.774 211.475,271.121 212.057,271.687C212.228,271.852 212.906,273.137 213.563,274.541C214.221,275.946 214.962,277.098 215.211,277.102C215.459,277.105 215.663,277.393 215.663,277.74C215.663,278.087 216.611,279.854 217.771,281.667C218.931,283.48 219.88,285.106 219.88,285.282C219.88,285.457 220.825,287.078 221.98,288.884C223.136,290.691 223.936,292.169 223.759,292.169C223.581,292.169 224.275,293.389 225.301,294.88L227.166,297.59L283.914,297.571C346.465,297.55 341.874,297.863 343.766,293.495C344.369,292.103 345.07,290.964 345.323,290.964C345.576,290.964 345.783,290.557 345.783,290.06C345.783,289.563 345.986,289.154 346.235,289.151C346.483,289.148 347.222,287.928 347.876,286.44C348.53,284.952 349.233,283.735 349.438,283.735C349.643,283.735 350.327,282.718 350.959,281.476C351.591,280.233 352.247,279.081 352.415,278.916C352.584,278.75 353.262,277.53 353.921,276.205C354.581,274.88 355.256,273.66 355.422,273.494C355.779,273.136 356.961,271.105 358.782,267.715C359.511,266.359 360.815,264.127 361.68,262.757C362.545,261.386 363.253,259.988 363.253,259.651C363.253,259.313 363.524,259.036 363.855,259.036C364.187,259.036 364.458,258.652 364.458,258.183C364.458,257.713 364.661,257.239 364.91,257.129C365.158,257.018 365.894,255.843 366.545,254.518C367.196,253.193 368.555,250.753 369.566,249.096C370.577,247.44 371.936,245.068 372.586,243.825C373.236,242.583 373.977,241.566 374.233,241.566C374.489,241.566 374.699,241.024 374.699,240.361C374.699,239.699 374.91,239.157 375.169,239.157C375.428,239.157 375.956,238.411 376.344,237.5C376.731,236.589 377.744,234.759 378.594,233.434C379.444,232.108 380.302,230.55 380.501,229.97C380.701,229.39 381.035,228.913 381.245,228.91C381.455,228.907 382.162,227.687 382.816,226.199C383.47,224.711 384.184,223.494 384.402,223.494C384.621,223.494 384.951,223.02 385.137,222.44C385.322,221.86 386.451,219.759 387.644,217.771C388.837,215.783 390.132,213.411 390.521,212.5C390.91,211.589 391.44,210.843 391.698,210.843C391.957,210.843 392.169,210.437 392.169,209.94C392.169,209.443 392.372,209.034 392.62,209.03C392.869,209.027 393.607,207.807 394.262,206.32C394.916,204.832 395.611,203.614 395.807,203.614C398.522,203.614 398.5,194.84 395.777,192.169C395.609,192.003 394.931,190.783 394.271,189.458C393.612,188.133 392.869,186.958 392.62,186.847C392.372,186.737 392.169,186.285 392.169,185.843C392.169,185.402 391.965,184.95 391.717,184.839C391.468,184.729 390.725,183.554 390.066,182.229C389.407,180.904 388.715,179.684 388.529,179.518C388.342,179.352 387.722,178.268 387.151,177.108C386.04,174.855 384.829,172.781 384.337,172.289C384.172,172.123 383.48,170.904 382.799,169.578C380.039,164.199 378.562,161.72 377.56,160.784C376.98,160.242 376.506,159.513 376.506,159.165C376.506,158.476 374.623,154.707 374.035,154.217C373.835,154.051 373.168,152.831 372.552,151.506C371.935,150.181 371.068,148.724 370.623,148.268C370.179,147.812 369.231,146.186 368.516,144.654C367.802,143.121 366.868,141.509 366.44,141.071C366.013,140.634 365.663,140.013 365.663,139.692C365.663,139.372 364.714,137.7 363.554,135.978C362.395,134.256 361.446,132.505 361.446,132.086C361.446,131.668 361.175,131.325 360.843,131.325C360.512,131.325 360.241,131.049 360.241,130.711C360.241,130.373 359.563,129.023 358.735,127.711C357.907,126.399 357.229,125.037 357.229,124.686C357.229,124.334 356.676,123.453 356.001,122.728C355.325,122.003 354.618,120.794 354.429,120.042C354.241,119.29 353.845,118.675 353.549,118.675C353.254,118.675 353.012,118.268 353.012,117.771C353.012,117.274 352.741,116.867 352.41,116.867C352.078,116.867 351.807,116.358 351.807,115.736C351.807,115.114 351.401,114.268 350.904,113.855C350.407,113.443 350,112.732 350,112.276C350,111.819 349.729,111.446 349.398,111.446C349.066,111.446 348.795,110.904 348.795,110.241C348.795,109.578 348.568,109.036 348.29,109.036C348.012,109.036 347.266,107.955 346.633,106.633C346,105.312 345.279,104.228 345.03,104.224C344.782,104.22 344.578,103.675 344.578,103.012C344.578,102.349 344.337,101.807 344.041,101.807C343.746,101.807 343.339,101.148 343.136,100.341C342.934,99.535 342.295,98.744 341.715,98.583C339.388,97.935 227.711,97.468 227.711,98.106M348.757,149.124C350.818,149.541 352.954,151.426 352.992,152.861C353.003,153.276 353.283,153.614 353.614,153.614C354.01,153.614 354.217,168.373 354.217,196.687C354.217,225 354.01,239.759 353.614,239.759C353.283,239.759 353.003,240.233 352.993,240.813C352.927,244.45 346.004,246.821 341.251,244.835C336.239,242.741 336.145,242.339 336.145,223.201L336.145,206.627L333.554,206.627C332.13,206.627 330.627,206.29 330.216,205.879C329.62,205.283 329.355,205.312 328.916,206.024C328.476,206.736 328.211,206.765 327.615,206.17C326.261,204.815 237.852,205.111 236.228,206.476C235.02,207.491 234.968,208.153 234.806,224.398C234.613,243.866 234.42,244.557 229.109,244.855C228.718,244.877 228.198,245.095 227.954,245.339C226.518,246.775 219.397,244.262 218.837,242.121C218.67,241.485 218.295,240.964 218.002,240.964C216.849,240.964 217.353,154.357 218.516,152.539C220.599,149.283 221.016,149.096 226.187,149.096C230.798,149.096 231.177,149.198 232.857,150.875L234.639,152.654L234.94,170.152L235.241,187.651L336.145,187.959L336.145,170.904L336.145,153.85L338.178,151.63C340.135,149.494 343.626,148.064 345.783,148.516C346.28,148.62 347.619,148.894 348.757,149.124" style="fill:rgb(199,133,72);"/>
        </g>
    </g>
</svg>
